<?xml version="1.0" encoding="UTF-8"?>
<svg id="Camada_2" data-name="Camada 2" xmlns="http://www.w3.org/2000/svg" viewBox="0 0 275.98 280.11">
  <defs>
    <style>
      .cls-1 {
        fill: #fc7e55;
      }
    </style>
  </defs>
  <g id="Camada_1-2" data-name="Camada 1">
    <g>
      <path class="cls-1" d="m262.48,188.55c-15.15-18.86-45.41-22.23-64.9-8.08-13.74,10.04-17.22,28.41-7.78,41.27,13.63,18.52,41.49,24.52,61.75,13.22,18.56-10.04,24-30.01,10.93-46.41Z"/>
      <path class="cls-1" d="m213.81,159.73c11,.93,21.3-1.3,30.15-6,13.56-6.67,22.86-16.04,28.56-29,9.48-21.26-1.26-43.86-23.71-49.71-25.41-6.67-55.68,8.19-66.2,32.41-10.96,25.34,3.7,49.93,31.19,52.31Z"/>
      <path class="cls-1" d="m115.57,78.02c9.08,19.74,31.26,27.04,51.79,14.74,19.71-11.85,29.26-30.52,28.6-53.56-.48-16.56-7.22-30.41-23.71-36.82-13.48-5.26-25.82-1.22-37.41,6.67-20.74,14.22-29.93,46.38-19.26,68.97Z"/>
      <path class="cls-1" d="m79.68,88.2c18.34-12.41,25.34-40.23,15.15-60.57C84.6,7.49,61.38,3.45,45.41,19.27c-15.3,15.22-19.15,33.75-11.93,53.64,6.74,18.67,27.23,28.19,46.19,15.3Z"/>
      <path class="cls-1" d="m166.39,165.88c-9.11-32.38-38.71-57.23-71.97-59.6-20.52-1.48-39.27,4.67-56.94,14.41-5.07,2.56-10.41,4.78-15.22,7.74-8.74,5.56-15.85,12.74-19.56,22.82-6.08,16.3-1.19,30.82,7.56,44.67,6.19,9.74,15.52,13.82,26.71,14.19,3.19.15,6.33.48,9.48.89,8.74,1.11,15.71,5.19,21.52,11.74,6.15,6.96,8.74,15.34,10.78,24.04,5.89,24.93,24.89,37.71,48.71,31.97,18.82-4.52,30.97-16.89,37.19-34.89,8.85-25.75,9.15-51.68,1.74-77.98Z"/>
    </g>
  </g>
</svg>