<?xml version="1.0" encoding="UTF-8"?>
<svg id="Camada_2" data-name="Camada 2" xmlns="http://www.w3.org/2000/svg" viewBox="0 0 794.25 191.47">
  <defs>
    <style>
      .cls-1 {
        fill: #fc7e55;
      }
    </style>
  </defs>
  <g id="Camada_1-2" data-name="Camada 1">
    <g>
      <path class="cls-1" d="m266.67,33.6h-37.55c-1.71,0-3.2,1.49-3.2,2.99v39.47c-6.4-5.12-16-8.11-26.03-8.11-33.71,0-56.32,24.75-56.32,61.66s22.61,61.87,56.32,61.87c14.29,0,27.95-5.55,36.06-14.08l3.2,7.68c.85,1.92,1.92,3.2,3.41,3.2h24.11c1.71,0,3.2-1.49,3.2-3.2V36.58c0-1.49-1.49-2.99-3.2-2.99Zm-40.75,109.66c-2.56,7.04-9.39,11.73-16.85,11.73-11.73,0-19.63-10.24-19.63-25.6s7.89-24.75,19.63-24.75c7.47,0,14.29,4.69,16.85,11.73v26.88Z"/>
      <path class="cls-1" d="m344.54,67.94c-37.55,0-62.72,24.75-62.72,61.87s25.17,61.66,62.72,61.66,62.72-24.75,62.72-61.87-25.17-61.66-62.72-61.66Zm0,85.12c-12.59,0-21.12-9.39-21.12-23.25s8.53-23.47,21.12-23.47,21.12,9.39,21.12,23.25-8.53,23.47-21.12,23.47Z"/>
      <path class="cls-1" d="m493.02,79.46c9.17,0,16.85,1.49,24.75,5.97,1.71.85,3.2.21,4.05-1.71l14.08-29.65c.64-1.49-.21-2.99-1.92-3.84-12.37-7.68-29.01-12.37-44.8-12.37-43.95,0-73.39,30.72-73.39,76.8s29.44,76.8,73.39,76.8c15.79,0,32.43-4.69,44.8-12.37,1.71-.85,2.56-2.35,1.92-3.84l-14.08-29.65c-.85-1.92-2.35-2.56-4.05-1.71-7.89,4.48-15.57,5.97-24.75,5.97-19.2,0-32-14.08-32-35.2s12.8-35.2,32-35.2Z"/>
      <path class="cls-1" d="m602.89,67.94c-17.07,0-34.13,4.48-46.3,12.16-1.28,1.07-1.71,2.56-1.07,4.05l12.16,25.6c.85,1.49,2.13,2.35,3.2,1.71,7.04-4.05,17.28-6.83,25.6-6.83,9.81,0,16.43,5.97,16.43,15.15v8.96c-4.27-6.83-15.36-11.31-27.73-11.31-24.11,0-40.32,13.87-40.53,34.77-.21,23.47,16,39.25,40.53,39.25,15.57,0,29.65-4.69,36.69-12.16l1.49,5.76c0,1.71,1.71,3.2,3.41,3.2h26.88c1.71,0,3.2-1.49,3.2-3.2v-55.26c0-42.45-17.07-61.87-53.98-61.87Zm10.03,86.62c-3.63,3.63-7.25,5.33-11.73,5.33-5.33,0-8.96-2.99-8.96-7.68s3.63-7.68,8.96-7.68c4.48,0,8.11,1.71,11.73,5.33v4.69Z"/>
      <path class="cls-1" d="m731.53,67.94c-37.55,0-62.72,24.75-62.72,61.87s25.17,61.66,62.72,61.66,62.72-24.75,62.72-61.87-25.17-61.66-62.72-61.66Zm0,85.12c-12.59,0-21.12-9.39-21.12-23.25s8.53-23.47,21.12-23.47,21.12,9.39,21.12,23.25-8.53,23.47-21.12,23.47Z"/>
      <path class="cls-1" d="m586.19,57.23c24.79,0,22.68-28.88,29.4-28.88,1.98,0,3.56,1.85,3.3,4.62,0,4.48-2.37,10.02-5.41,15.16-.4.66-.26,1.45.53,1.71l15.3,6.72c.79.26,1.45-.13,2.11-.79,4.48-7.38,7.52-18.06,7.52-26.63,0-17.54-9.49-29.14-23.6-29.14-25.05,0-22.55,28.88-29.54,28.88-2.11,0-3.43-1.85-3.16-4.61,0-4.48,2.11-10.02,5.41-15.16.4-.66.26-1.45-.53-1.71l-15.56-6.73c-.66-.26-1.32.13-1.85.79-4.48,6.99-7.52,17.27-7.52,25.84,0,17.93,9.49,29.93,23.6,29.93Z"/>
      <path class="cls-1" d="m102.19,43.83c-.64-1.28-2.99-2.77-5.12-2.77h-43.52c-2.13,0-4.48,1.49-5.12,2.77L.21,185.5c-.64,1.28.22,2.77,1.92,2.77h42.24c1.92,0,3.63-1.06,4.48-2.77l6.41-22.41h40.11l6.4,22.41c.86,1.71,2.57,2.77,4.49,2.77h42.23c1.71,0,2.57-1.49,1.93-2.77L102.19,43.83Zm-20.53,43.83c3.82-2.24,8.32-.64,9.91,3.51.97,2.52.98,5.04.05,7.77-.55,1.83-1.64,3.53-3.26,4.88-4.03,3.4-9.33,2.05-11.27-2.84-1.85-4.69.23-10.78,4.56-13.31Zm-24.29,6.48c.5-2.63,1.61-4.83,4.14-5.95,3.09-1.36,5.87-.4,8.18,1.77,3.2,3.02,4.42,6.82,3.36,11.09-1.1,4.43-5.08,6.45-8.98,5.01-4.49-1.61-7.59-7.19-6.71-11.92Zm-5.06,22.3c-3.67-1.71-5.65-4.73-5.63-8.85.02-4.29,3.7-6.88,7.8-5.54,4.12,1.36,6.93,6.07,6.13,10.22-.82,4.29-4.87,5.78-8.3,4.16Zm40.47,15.1c-2.44,3.99-6.74,4.83-10.89,2.26-1.45-.9-2.93-1.68-4.7-1.78-1.67-.1-3.16.29-4.49,1.32-.48.37-.95.75-1.4,1.16-1.57,1.46-3.37,2.17-5.53,1.69-3.05-.68-5.67-1.99-7.05-5.01-.85-1.86-.87-3.79-.43-5.72.25-1.05.67-2.07,1.01-3.09,1.07-3.7,2.77-7.06,5.74-9.64,4.81-4.16,12.16-4.8,17.76-1.67,4.55,2.55,8.01,6.09,10.29,10.76,1.59,3.27,1.62,6.58-.3,9.72Zm10.84-22.66c-1.21,4.26-5.78,7.21-10.12,6.55-3.01-.47-5.02-3.41-4.52-6.62.72-4.54,5.27-8.18,9.85-7.67,3.98.44,5.94,3.87,4.79,7.73Z"/>
    </g>
  </g>
</svg>