<?xml version="1.0" encoding="UTF-8"?>
<svg id="Camada_2" data-name="Camada 2" xmlns="http://www.w3.org/2000/svg" viewBox="0 0 300 260.28">
  <defs>
    <style>
      .cls-1 {
        fill: #fc7e55;
      }
    </style>
  </defs>
  <g id="Camada_1-2" data-name="Camada 1">
    <g>
      <path class="cls-1" d="m273.2,75.93c-24.05-2.62-47.83,16.4-51.6,40.18-2.62,16.82,7.91,32.27,23.68,34.68,22.74,3.46,46.68-12,53.02-34.31,6.02-20.22-4.24-38.19-25.09-40.55Z"/>
      <path class="cls-1" d="m218.4,89.97c8.43-7.12,14.14-15.98,17.08-25.56,4.87-14.3,4.82-27.5-.31-40.7-8.33-21.74-31.9-30.12-51.92-18.39-22.68,13.25-33.58,45.16-23.89,69.73,10.16,25.67,37.93,32.69,59.04,14.93Z"/>
      <path class="cls-1" d="m91.15,101.65c20.38,7.54,41.23-2.99,47.04-26.19,5.55-22.32-.89-42.28-17.65-58.1-12.05-11.37-26.61-16.4-42.8-9.27-13.25,5.81-19.12,17.39-21.74,31.17-4.61,24.73,11.63,53.96,35.15,62.39Z"/>
      <path class="cls-1" d="m72.98,134.24c4.19-21.74-10.53-46.36-32.11-53.54C19.38,73.68.11,87.25,0,109.72c-.05,21.58,10.32,37.4,29.49,46.36,17.97,8.43,39.19.68,43.48-21.85Z"/>
      <path class="cls-1" d="m189.22,127.85c-29.34-16.45-67.84-13.1-93.04,8.75-15.56,13.46-24.46,31.07-30.07,50.45-1.78,5.4-3.98,10.74-5.29,16.24-2.25,10.11-2.2,20.22,2.31,29.97,7.23,15.82,20.95,22.63,36.93,26.25,11.26,2.51,20.75-1.2,28.92-8.85,2.36-2.15,4.82-4.14,7.33-6.08,6.97-5.4,14.77-7.44,23.52-6.91,9.27.58,17.03,4.66,24.62,9.38,21.79,13.46,44.27,9.06,57.05-11.84,10.11-16.5,9.95-33.84,1.62-50.97-11.94-24.46-30.07-43.01-53.91-56.37Z"/>
    </g>
  </g>
</svg>